<svg version="1.1" id="Capa_1" xmlns="http://www.w3.org/2000/svg" xmlns:xlink="http://www.w3.org/1999/xlink" x="0px" y="0px" viewBox="0 0 512 512" style="enable-background:new 0 0 512 512;" xml:space="preserve">
<g>
	<g>
		<path style="fill:none;stroke:#000000;stroke-width:15;stroke-linecap:round;stroke-linejoin:round;stroke-miterlimit:10;" d="&#10;&#9;&#9;&#9;M114.71,302.74v143.24c0,5.82,4.72,10.53,10.53,10.53h74.07"/>
		
			<line style="fill:none;stroke:#000000;stroke-width:15;stroke-linecap:round;stroke-linejoin:round;stroke-miterlimit:10;" x1="302.3" y1="456.51" x2="234.31" y2="456.51"/>
		<path style="fill:none;stroke:#000000;stroke-width:15;stroke-linecap:round;stroke-linejoin:round;stroke-miterlimit:10;" d="&#10;&#9;&#9;&#9;M114.71,132.85V66.02c0-5.82,4.72-10.53,10.53-10.53h176.4"/>
		
			<line style="fill:none;stroke:#000000;stroke-width:15;stroke-linecap:round;stroke-linejoin:round;stroke-miterlimit:10;" x1="114.71" y1="210.21" x2="114.71" y2="167.85"/>
		<g>
			
				<polyline style="fill:none;stroke:#000000;stroke-width:15;stroke-linecap:round;stroke-linejoin:round;stroke-miterlimit:10;" points="&#10;&#9;&#9;&#9;&#9;302.303,428.512 142.713,428.512 142.713,302.743 &#9;&#9;&#9;"/>
			
				<polyline style="fill:none;stroke:#000000;stroke-width:15;stroke-linecap:round;stroke-linejoin:round;stroke-miterlimit:10;" points="&#10;&#9;&#9;&#9;&#9;142.713,210.214 142.713,83.488 302.963,83.488 &#9;&#9;&#9;"/>
		</g>
		
			<polyline style="fill:none;stroke:#000000;stroke-width:15;stroke-linecap:round;stroke-linejoin:round;stroke-miterlimit:10;" points="&#10;&#9;&#9;&#9;66.57,300.338 173.967,300.338 173.967,334.139 282.065,256 173.967,177.861 173.967,211.662 66.57,211.662 &#9;&#9;"/>
		<path style="fill:none;stroke:#000000;stroke-width:15;stroke-linecap:round;stroke-linejoin:round;stroke-miterlimit:10;" d="&#10;&#9;&#9;&#9;M445.43,371.21v78.01c0,4.39-2.72,8.31-6.83,9.86l-119.12,44.74c-6.88,2.58-14.23-2.5-14.23-9.86V18.04&#10;&#9;&#9;&#9;c0-7.36,7.35-12.44,14.23-9.86l55.57,20.87"/>
		<path style="fill:none;stroke:#000000;stroke-width:15;stroke-linecap:round;stroke-linejoin:round;stroke-miterlimit:10;" d="&#10;&#9;&#9;&#9;M407.81,41.36l30.79,11.56c4.11,1.55,6.83,5.47,6.83,9.86v273.43"/>
	</g>
	<path style="fill:none;stroke:#000000;stroke-width:15;stroke-linecap:round;stroke-linejoin:round;stroke-miterlimit:10;" d="&#10;&#9;&#9;M346.836,308.518L346.836,308.518c-8.178,0-14.807-6.629-14.807-14.807v-75.421c0-8.178,6.629-14.807,14.807-14.807h0&#10;&#9;&#9;c8.178,0,14.807,6.629,14.807,14.807v75.421C361.643,301.888,355.013,308.518,346.836,308.518z"/>
</g>
<g>
</g>
<g>
</g>
<g>
</g>
<g>
</g>
<g>
</g>
<g>
</g>
<g>
</g>
<g>
</g>
<g>
</g>
<g>
</g>
<g>
</g>
<g>
</g>
<g>
</g>
<g>
</g>
<g>
</g>
</svg>